<svg xmlns="http://www.w3.org/2000/svg" xmlns:svg="http://www.w3.org/2000/svg" xmlns:xlink="http://www.w3.org/1999/xlink" version="1.0" height="641pt" width="1274.7166666666667pt" viewBox="30 42 1282.7166666666667 647" ><defs><style type="text/css">
            @font-face {
                font-family: 'noto_regular';
                src: url('https://app.creately.com/diagram/assets/fonts/noto/noto-regular.woff') format('woff'),
                     url('https://app.creately.com/diagram/assets/fonts/noto/noto-regular.woff2') format('woff2');
                font-weight: normal;
                font-style: normal;
            }
        p {
            margin: 0;
        }
        </style></defs><defs><style>
            span{ display: inline-block; }
        </style></defs><g id="1j1umfrttz"><g transform="translate(130 50)"><rect x="0" y="0" width="75.0000017285347" height="60.000000178813934" fill="rgba(255,255,255,1)" stroke="#03c9a9" stroke-width="1.5" stroke-linecap="round" stroke-linejoin="round"/></g><g transform="translate(131.50000086426735, 70.50000008940697) rotate(0, 36, 9.5)" width="72" height="19"><text text-decoration="none" x="2" fill="rgb(0, 0, 0)" font-size="10pt" font-family="Lato"  y="17">Mobile&#160;</text><text text-decoration="none" x="46" fill="rgb(0, 0, 0)" font-size="10pt" font-family="Lato"  y="17">App</text><text text-decoration="none" x="70" fill="#4b4b4b" font-size="10pt" font-family="noto_regular"  y="17"></text></g></g><g id="1gjsp3pj73"><g transform="translate(70.43333333333332 157.6)"><rect x="0" y="0" width="64.99999868869781" height="60.000000178813934" fill="rgba(255,255,255,1)" stroke="#03c9a9" stroke-width="1.5" stroke-linecap="round" stroke-linejoin="round"/></g><g transform="translate(64.93333267768224, 170.10000008940696) rotate(0, 38, 17.5)" width="76" height="35"><text text-decoration="none" x="3.5" fill="rgb(0, 0, 0)" font-size="10pt" font-family="Lato"  y="14">Device/Foxi&#160;</text><text text-decoration="none" x="19" fill="rgb(0, 0, 0)" font-size="10pt" font-family="Lato"  y="36">Watch</text><text text-decoration="none" x="57" fill="#4b4b4b" font-size="10pt" font-family="noto_regular"  y="36"></text></g></g><g id="9snmncoeos"><g transform="translate(625 78.33333333333333)"><path d="M 0.75,0.75 L 149.75,0.75 L 149.75,126.75 L 0.75,126.75 Z" fill="rgb(255, 255, 255)" stroke="rgb(3, 201, 169)" stroke-width="1.5" stroke-linecap="round" stroke-linejoin="round"/><path d="M 0.75,30.25 L 149.75,30.25" fill="none" stroke="rgb(3, 201, 169)" stroke-width="1.5" stroke-linecap="round" stroke-linejoin="round"/><path d="M 0.75,111.25 L 149.75,111.25" fill="none" stroke="rgb(3, 201, 169)" stroke-width="1.5" stroke-linecap="round" stroke-linejoin="round"/></g><g transform="translate(690.5, 83.08333333333333) rotate(0, 0, 0)" width="15" height="19"><text text-decoration="none" x="0" fill="#4b4b4b" font-weight="bold" font-size="11pt" font-family="Lato"  y="17">1&#160;</text><text text-decoration="none" x="13" fill="#4b4b4b" font-size="10pt" font-family="noto_regular"  y="17"></text></g><g transform="translate(626.25, 111.33333333333331) rotate(0, 75.5, 0)" width="151" height="55"><text text-decoration="none" x="29.5" fill="#4b4b4b" font-size="11pt" font-family="Lato"  y="16">Receive&#160;</text><text text-decoration="none" x="85.5" fill="#4b4b4b" font-size="11pt" font-family="Lato"  y="16">HTTP</text><text text-decoration="none" x="121.5" fill="#4b4b4b" font-size="11pt" font-family="Lato"  y="16"></text><text text-decoration="none" x="8" fill="#4b4b4b" font-size="11pt" font-family="Lato"  y="37">request,&#160;</text><text text-decoration="none" x="68" fill="#4b4b4b" font-size="11pt" font-family="Lato"  y="37">create&#160;</text><text text-decoration="none" x="114" fill="#4b4b4b" font-size="11pt" font-family="Lato"  y="37">new</text><text text-decoration="none" x="143" fill="#4b4b4b" font-size="11pt" font-family="Lato"  y="37"></text><text text-decoration="none" x="43.5" fill="#4b4b4b" font-size="11pt" font-family="Lato"  y="59">Message&#160;</text><text text-decoration="none" x="107.5" fill="#4b4b4b" font-size="10pt" font-family="noto_regular"  y="59"></text></g></g><g id="573dtz976e"><g transform="translate(236.66666666666663 152.6)"><rect x="0" y="0" width="95.00000178813934" height="65.00108832120895" fill="rgba(255,255,255,1)" stroke="#03c9a9" stroke-width="1.5" stroke-linecap="round" stroke-linejoin="round"/></g><g transform="translate(239.6666675607363, 167.60054416060447) rotate(0, 44.5, 17.5)" width="89" height="35"><text text-decoration="none" x="4" fill="rgb(0, 0, 0)" font-size="10pt" font-family="Lato"  y="14">SMS&#160;</text><text text-decoration="none" x="33" fill="rgb(0, 0, 0)" font-size="10pt" font-family="Lato"  y="14">Gateway</text><text text-decoration="none" x="85" fill="rgb(0, 0, 0)" font-size="10pt" font-family="Lato"  y="14"></text><text text-decoration="none" x="12.5" fill="rgb(0, 0, 0)" font-size="10pt" font-family="Lato"  y="36">(essendex)</text><text text-decoration="none" x="76.5" fill="#4b4b4b" font-size="10pt" font-family="noto_regular"  y="36"></text></g></g><g id="5rnhg1beo5"><mask id="27887" x="192" y="87" width="326" height="71" maskUnits="userSpaceOnUse"><rect x="192" y="87" width="326" height="71" fill="white" /><rect x="236.57731958762884" y="87.5" width="95" height="25" fill="black" /></mask><g mask="url(#27887)"><path d="M 205,100 L 355.00000086426735,100 L 355.00000086426735,122.5 L 355.00000086426735,145 L 505,145" fill="none" stroke="#f6902a" stroke-width="1.5" stroke-linecap="round" stroke-linejoin="round"/><path d="M 505,145 L 496.30434782608694,139.25 L 496.30434782608694,150.75 Z" fill="rgb(246,144,42)" stroke="#f6902a" stroke-width="1.5" stroke-linecap="round" stroke-linejoin="round"/></g><g transform="translate(239.57731958762884, 90.5)" width="89" height="19"><text text-decoration="none" x="3.5" fill="rgb(0, 0, 0)" font-size="9pt" font-family="Lato"  y="17">Sends&#160;</text><text text-decoration="none" x="40.5" fill="rgb(0, 0, 0)" font-size="9pt" font-family="Lato"  y="17">Request</text><text text-decoration="none" x="85.5" fill="#4b4b4b" font-size="10pt" font-family="noto_regular"  y="17"></text></g></g><g id="8aevpwptkl"><mask id="6fd66" x="122.43333333333334" y="174.6" width="127.23333333333332" height="26" maskUnits="userSpaceOnUse"><rect x="122.43333333333334" y="174.6" width="127.23333333333332" height="26" fill="white" /><rect x="136.14229979466114" y="175.1" width="73" height="25" fill="black" /></mask><g mask="url(#6fd66)"><path d="M 135.43333333333334,187.6 L 236.66666666666666,187.6" fill="none" stroke="#f6902a" stroke-width="1.5" stroke-linecap="round" stroke-linejoin="round"/><path d="M 236.66666666666666,187.6 L 227.97101449275362,181.85 L 227.97101449275362,193.35 Z" fill="rgb(246,144,42)" stroke="#f6902a" stroke-width="1.5" stroke-linecap="round" stroke-linejoin="round"/></g><g transform="translate(139.14229979466114, 178.1)" width="67" height="19"><text text-decoration="none" x="2.5" fill="rgb(0, 0, 0)" font-size="9pt" font-family="Lato"  y="17">Sends&#160;</text><text text-decoration="none" x="39.5" fill="rgb(0, 0, 0)" font-size="9pt" font-family="Lato"  y="17">SMS</text><text text-decoration="none" x="64.5" fill="#4b4b4b" font-size="10pt" font-family="noto_regular"  y="17"></text></g></g><g id="2aboih17e4"><mask id="bad4c" x="318.66666666666663" y="132" width="199.33333333333337" height="48.599999999999994" maskUnits="userSpaceOnUse"><rect x="318.66666666666663" y="132" width="199.33333333333337" height="48.599999999999994" fill="white" /><rect x="342.1754140032148" y="155.1" width="95" height="25" fill="black" /></mask><g mask="url(#bad4c)"><path d="M 331.66666666666663,167.6 L 480,167.6 L 480,156.3 L 480,145 L 505,145" fill="none" stroke="#f6902a" stroke-width="1.5" stroke-linecap="round" stroke-linejoin="round"/><path d="M 505,145 L 496.30434782608694,139.25 L 496.30434782608694,150.75 Z" fill="rgb(246,144,42)" stroke="#f6902a" stroke-width="1.5" stroke-linecap="round" stroke-linejoin="round"/></g><g transform="translate(345.1754140032148, 158.1)" width="89" height="19"><text text-decoration="none" x="3.5" fill="rgb(0, 0, 0)" font-size="9pt" font-family="Lato"  y="17">Sends&#160;</text><text text-decoration="none" x="40.5" fill="rgb(0, 0, 0)" font-size="9pt" font-family="Lato"  y="17">Request</text><text text-decoration="none" x="85.5" fill="#4b4b4b" font-size="10pt" font-family="noto_regular"  y="17"></text></g></g><g id="1mlqjtnl0c"><g transform="translate(605 330)"><rect x="0" y="0" width="101" height="40.000015169382095" fill="rgba(255,255,255,1)" stroke="#03c9a9" stroke-width="1.5" stroke-linecap="round" stroke-linejoin="round"/></g><g transform="translate(615.5, 340.50000758469105) rotate(0, 40, 9.5)" width="80" height="19"><text text-decoration="none" x="3" fill="rgb(0, 0, 0)" font-size="10pt" font-family="Lato"  y="17">Node&#160;</text><text text-decoration="none" x="39" fill="rgb(0, 0, 0)" font-size="10pt" font-family="Lato"  y="17">Server</text><text text-decoration="none" x="77" fill="#4b4b4b" font-size="10pt" font-family="noto_regular"  y="17"></text></g></g><g id="25midfohgi"><g transform="translate(360 420)"><path d="M 0.75,0.75 L 149.25,0.75 L 149.25,108.75 L 0.75,108.75 Z" fill="rgb(255, 255, 255)" stroke="rgb(3, 201, 169)" stroke-width="1.5" stroke-linecap="round" stroke-linejoin="round"/><path d="M 0.75,30.25 L 149.25,30.25" fill="none" stroke="rgb(3, 201, 169)" stroke-width="1.5" stroke-linecap="round" stroke-linejoin="round"/><path d="M 0.75,93.25 L 149.25,93.25" fill="none" stroke="rgb(3, 201, 169)" stroke-width="1.5" stroke-linecap="round" stroke-linejoin="round"/></g><g transform="translate(425.25, 424.75) rotate(0, 0, 0)" width="15" height="19"><text text-decoration="none" x="0" fill="#4b4b4b" font-weight="bold" font-size="11pt" font-family="Lato"  y="17">2&#160;</text><text text-decoration="none" x="13" fill="#4b4b4b" font-size="10pt" font-family="noto_regular"  y="17"></text></g><g transform="translate(362.5, 453) rotate(0, 74, 0)" width="148" height="55"><text text-decoration="none" x="8" fill="#4b4b4b" font-size="11pt" font-family="Lato"  y="16">Distribute&#160;</text><text text-decoration="none" x="80" fill="#4b4b4b" font-size="11pt" font-family="Lato"  y="16">message</text><text text-decoration="none" x="140" fill="#4b4b4b" font-size="11pt" font-family="Lato"  y="16"></text><text text-decoration="none" x="11" fill="#4b4b4b" font-size="11pt" font-family="Lato"  y="37">to&#160;</text><text text-decoration="none" x="29" fill="#4b4b4b" font-size="11pt" font-family="Lato"  y="37">interested&#160;</text><text text-decoration="none" x="102" fill="#4b4b4b" font-size="11pt" font-family="Lato"  y="37">node</text><text text-decoration="none" x="137" fill="#4b4b4b" font-size="11pt" font-family="Lato"  y="37"></text><text text-decoration="none" x="33" fill="#4b4b4b" font-size="11pt" font-family="Lato"  y="59">clients&#160;</text><text text-decoration="none" x="81" fill="#4b4b4b" font-size="11pt" font-family="Lato"  y="59">only&#160;</text><text text-decoration="none" x="115" fill="#4b4b4b" font-size="10pt" font-family="noto_regular"  y="59"></text></g></g><g id="1oyy5f3tpw"><g><path d="M 605,360 L 435,360 L 435,420" fill="none" stroke="#f6902a" stroke-width="1.5" stroke-linecap="round" stroke-linejoin="round"/><path d="M 435,420 L 440.75,411.30434782608694 L 429.25,411.30434782608694 Z" fill="rgb(246,144,42)" stroke="#f6902a" stroke-width="1.5" stroke-linecap="round" stroke-linejoin="round"/></g></g><g id="9dg1d3osyp"><g transform="translate(929.9666666666667 45)"><path d="M 200,0 L 0,0 L 0,35 L 200,35" fill="rgba(255,255,255,1)" stroke="#03c9a9" stroke-width="1.5" stroke-linecap="round" stroke-linejoin="round"/></g><g transform="translate(1020.4666666666667, 53) rotate(0, 9.5, 9.5)" width="19" height="19"><text text-decoration="none" x="1" fill="rgb(0, 0, 0)" font-size="10pt" font-family="Lato"  y="17">DB</text><text text-decoration="none" x="18" fill="#4b4b4b" font-size="10pt" font-family="noto_regular"  y="17"></text></g></g><g id="rati82s9s5"><mask id="3e0a7" x="762" y="52" width="180.96666666666658" height="64.33333333333333" maskUnits="userSpaceOnUse"><rect x="762" y="52" width="180.96666666666658" height="64.33333333333333" fill="white" /><rect x="781.6198113207547" y="90.83333333333333" width="129" height="25" fill="black" /></mask><g mask="url(#3e0a7)"><path d="M 775,103.33333333333333 L 852.7333333333333,103.33333333333333 L 852.7333333333333,84.16666666666666 L 852.7333333333333,65 L 929.9666666666666,65" fill="none" stroke="#f6902a" stroke-width="1.5" stroke-linecap="round" stroke-linejoin="round"/><path d="M 929.9666666666666,65 L 921.2710144927536,59.25 L 921.2710144927536,70.75 Z" fill="rgb(246,144,42)" stroke="#f6902a" stroke-width="1.5" stroke-linecap="round" stroke-linejoin="round"/></g><g transform="translate(784.6198113207547, 93.83333333333333)" width="123" height="19"><text text-decoration="none" x="4" fill="rgb(0, 0, 0)" font-size="9pt" font-family="Lato"  y="17">Save&#160;</text><text text-decoration="none" x="34" fill="rgb(0, 0, 0)" font-size="9pt" font-family="Lato"  y="17">message&#160;</text><text text-decoration="none" x="88" fill="rgb(0, 0, 0)" font-size="9pt" font-family="Lato"  y="17">to&#160;</text><text text-decoration="none" x="102" fill="rgb(0, 0, 0)" font-size="9pt" font-family="Lato"  y="17">DB</text><text text-decoration="none" x="119" fill="#4b4b4b" font-size="10pt" font-family="noto_regular"  y="17"></text></g></g><g id="2ckg1e2b4t"><g transform="translate(604.8333333333334 465)"><rect x="0" y="0" width="101" height="24.930680483579636" fill="rgba(255,255,255,1)" stroke="#03c9a9" stroke-width="1.5" stroke-linecap="round" stroke-linejoin="round"/></g><g transform="translate(617.3333333333334, 467.9653402417898) rotate(0, 38, 9.5)" width="76" height="19"><text text-decoration="none" x="3" fill="rgb(0, 0, 0)" font-size="10pt" font-family="Lato"  y="17">Node&#160;</text><text text-decoration="none" x="39" fill="rgb(0, 0, 0)" font-size="10pt" font-family="Lato"  y="17">Client</text><text text-decoration="none" x="73" fill="#4b4b4b" font-size="10pt" font-family="noto_regular"  y="17"></text></g></g><g id="1gv2t1fql8"><g transform="translate(796.4 310.4666666666667)"><path d="M 0.75,0.75 L 149.75,0.75 L 149.75,90.75 L 0.75,90.75 Z" fill="rgb(255, 255, 255)" stroke="rgb(3, 201, 169)" stroke-width="1.5" stroke-linecap="round" stroke-linejoin="round"/><path d="M 0.75,30.25 L 149.75,30.25" fill="none" stroke="rgb(3, 201, 169)" stroke-width="1.5" stroke-linecap="round" stroke-linejoin="round"/></g><g transform="translate(861.9, 315.21662706052024) rotate(0, 0, 0)" width="15" height="19"><text text-decoration="none" x="0" fill="#4b4b4b" font-weight="bold" font-size="11pt" font-family="Lato"  y="17">3&#160;</text><text text-decoration="none" x="13" fill="#4b4b4b" font-size="10pt" font-family="noto_regular"  y="17"></text></g><g transform="translate(802.65, 343.46639150817543) rotate(0, 70.5, 0)" width="141" height="37"><text text-decoration="none" x="22" fill="#4b4b4b" font-size="11pt" font-family="Lato"  y="16">Show&#160;</text><text text-decoration="none" x="64" fill="#4b4b4b" font-size="11pt" font-family="Lato"  y="16">Alert&#160;</text><text text-decoration="none" x="101" fill="#4b4b4b" font-size="11pt" font-family="Lato"  y="16">on</text><text text-decoration="none" x="119" fill="#4b4b4b" font-size="11pt" font-family="Lato"  y="16"></text><text text-decoration="none" x="7" fill="#4b4b4b" font-size="11pt" font-family="Lato"  y="38">Operator&#x27;s&#160;</text><text text-decoration="none" x="84" fill="#4b4b4b" font-size="11pt" font-family="Lato"  y="38">Screen&#160;</text><text text-decoration="none" x="134" fill="#4b4b4b" font-size="10pt" font-family="noto_regular"  y="38"></text></g></g><g id="19kri9b6vq"><mask id="bb6c9" x="642" y="195.33333333333331" width="26" height="147.66666666666669" maskUnits="userSpaceOnUse"><rect x="642" y="195.33333333333331" width="26" height="147.66666666666669" fill="white" /><rect x="588" y="210.83333333333331" width="134" height="55" fill="black" /></mask><g mask="url(#bb6c9)"><path d="M 655,208.33333333333331 L 655,294 L 655,294 L 655,294 L 655,330" fill="none" stroke="#f6902a" stroke-width="1.5" stroke-linecap="round" stroke-linejoin="round"/><path d="M 655,330 L 660.75,321.30434782608694 L 649.25,321.30434782608694 Z" fill="rgb(246,144,42)" stroke="#f6902a" stroke-width="1.5" stroke-linecap="round" stroke-linejoin="round"/></g><g transform="translate(591, 213.83333333333331)" width="128" height="49"><text text-decoration="none" x="7" fill="rgb(0, 0, 0)" font-size="9pt" font-family="Lato"  y="13">Retrieve&#160;</text><text text-decoration="none" x="56" fill="rgb(0, 0, 0)" font-size="9pt" font-family="Lato"  y="13">contact&#160;</text><text text-decoration="none" x="100" fill="rgb(0, 0, 0)" font-size="9pt" font-family="Lato"  y="13">info</text><text text-decoration="none" x="121" fill="rgb(0, 0, 0)" font-size="9pt" font-family="Lato"  y="13"></text><text text-decoration="none" x="5" fill="rgb(0, 0, 0)" font-size="9pt" font-family="Lato"  y="31">decide&#160;</text><text text-decoration="none" x="45" fill="rgb(0, 0, 0)" font-size="9pt" font-family="Lato"  y="31">message&#160;</text><text text-decoration="none" x="99" fill="rgb(0, 0, 0)" font-size="9pt" font-family="Lato"  y="31">type</text><text text-decoration="none" x="123" fill="rgb(0, 0, 0)" font-size="9pt" font-family="Lato"  y="31"></text><text text-decoration="none" x="8.5" fill="rgb(0, 0, 0)" font-size="9pt" font-family="Lato"  y="53">send&#160;</text><text text-decoration="none" x="38.5" fill="rgb(0, 0, 0)" font-size="9pt" font-family="Lato"  y="53">to&#160;</text><text text-decoration="none" x="52.5" fill="rgb(0, 0, 0)" font-size="9pt" font-family="Lato"  y="53">node&#160;</text><text text-decoration="none" x="83.5" fill="rgb(0, 0, 0)" font-size="9pt" font-family="Lato"  y="53">server</text><text text-decoration="none" x="119.5" fill="#4b4b4b" font-size="10pt" font-family="noto_regular"  y="53"></text></g></g><g id="4pt7vepgfa"><mask id="387c9" x="192" y="47" width="326" height="81" maskUnits="userSpaceOnUse"><rect x="192" y="47" width="326" height="81" fill="white" /><rect x="193.78947368421052" y="47.5" width="284" height="25" fill="black" /></mask><g mask="url(#387c9)"><path d="M 505,115 L 480,115 L 480,87.5 L 480,60 L 205,60" fill="none" stroke="#f6902a" stroke-width="1.5" stroke-linecap="round" stroke-linejoin="round"/><path d="M 205,60 L 213.69565217391303,65.75 L 213.69565217391303,54.25 Z" fill="rgb(246,144,42)" stroke="#f6902a" stroke-width="1.5" stroke-linecap="round" stroke-linejoin="round"/></g><g transform="translate(196.78947368421052, 50.5)" width="278" height="19"><text text-decoration="none" x="10" fill="rgb(0, 0, 0)" font-size="9pt" font-family="Lato"  y="17">Send&#160;</text><text text-decoration="none" x="41" fill="rgb(0, 0, 0)" font-size="9pt" font-family="Lato"  y="17">Message&#160;</text><text text-decoration="none" x="95" fill="rgb(0, 0, 0)" font-size="9pt" font-family="Lato"  y="17">/&#160;</text><text text-decoration="none" x="102" fill="rgb(0, 0, 0)" font-size="9pt" font-family="Lato"  y="17">Notification&#160;</text><text text-decoration="none" x="169" fill="rgb(0, 0, 0)" font-size="9pt" font-family="Lato"  y="17">/Location&#160;</text><text text-decoration="none" x="223" fill="rgb(0, 0, 0)" font-size="9pt" font-family="Lato"  y="17">Request</text><text text-decoration="none" x="268" fill="#4b4b4b" font-size="10pt" font-family="noto_regular"  y="17"></text></g></g><g id="33eru6xkek"><g transform="translate(94.93333333333334 260)"><rect x="0" y="0" width="101" height="44.99999862909317" fill="rgba(255,255,255,1)" stroke="#03c9a9" stroke-width="1.5" stroke-linecap="round" stroke-linejoin="round"/></g><g transform="translate(115.43333333333334, 264.9999993145466) rotate(0, 30, 17.5)" width="60" height="35"><text text-decoration="none" x="2" fill="rgb(0, 0, 0)" font-size="10pt" font-family="Lato"  y="14">Mediatek&#160;</text><text text-decoration="none" x="10.5" fill="rgb(0, 0, 0)" font-size="10pt" font-family="Lato"  y="36">Device</text><text text-decoration="none" x="49.5" fill="#4b4b4b" font-size="10pt" font-family="noto_regular"  y="36"></text></g></g><g id="dlew58900p"><mask id="30410" x="181.93333333333334" y="132" width="336.06666666666666" height="151" maskUnits="userSpaceOnUse"><rect x="181.93333333333334" y="132" width="336.06666666666666" height="151" fill="white" /><rect x="236.56263121063682" y="257.5" width="95" height="25" fill="black" /></mask><g mask="url(#30410)"><path d="M 194.93333333333334,270 L 480,270 L 480,207.5 L 480,145 L 505,145" fill="none" stroke="#f6902a" stroke-width="1.5" stroke-linecap="round" stroke-linejoin="round"/><path d="M 505,145 L 496.30434782608694,139.25 L 496.30434782608694,150.75 Z" fill="rgb(246,144,42)" stroke="#f6902a" stroke-width="1.5" stroke-linecap="round" stroke-linejoin="round"/></g><g transform="translate(239.56263121063682, 260.5)" width="89" height="19"><text text-decoration="none" x="3.5" fill="rgb(0, 0, 0)" font-size="9pt" font-family="Lato"  y="17">Sends&#160;</text><text text-decoration="none" x="40.5" fill="rgb(0, 0, 0)" font-size="9pt" font-family="Lato"  y="17">Request</text><text text-decoration="none" x="85.5" fill="#4b4b4b" font-size="10pt" font-family="noto_regular"  y="17"></text></g></g><g id="1pz1q2u2qh"><mask id="63cad" x="131.93333333333334" y="182" width="436.06666666666666" height="156" maskUnits="userSpaceOnUse"><rect x="131.93333333333334" y="182" width="436.06666666666666" height="156" fill="white" /><rect x="264.0875000000001" y="312.5" width="144" height="25" fill="black" /></mask><g mask="url(#63cad)"><path d="M 555,195 L 555,325 L 349.9666666666667,325 L 144.93333333333334,325 L 144.93333333333334,305" fill="none" stroke="#f6902a" stroke-width="1.5" stroke-linecap="round" stroke-linejoin="round"/><path d="M 144.93333333333334,305 L 139.18333333333334,313.69565217391306 L 150.68333333333334,313.69565217391306 Z" fill="rgb(246,144,42)" stroke="#f6902a" stroke-width="1.5" stroke-linecap="round" stroke-linejoin="round"/></g><g transform="translate(267.0875000000001, 315.5)" width="138" height="19"><text text-decoration="none" x="6" fill="rgb(0, 0, 0)" font-size="9pt" font-family="Lato"  y="17">Send&#160;</text><text text-decoration="none" x="37" fill="rgb(0, 0, 0)" font-size="9pt" font-family="Lato"  y="17">Location&#160;</text><text text-decoration="none" x="87" fill="rgb(0, 0, 0)" font-size="9pt" font-family="Lato"  y="17">Request</text><text text-decoration="none" x="132" fill="#4b4b4b" font-size="10pt" font-family="noto_regular"  y="17"></text></g></g><g id="21zjyosnn8"><g><path d="M 510,475 L 604.8333333333334,475" fill="none" stroke="#f6902a" stroke-width="1.5" stroke-linecap="round" stroke-linejoin="round"/><path d="M 604.8333333333334,475 L 596.1376811594204,469.25 L 596.1376811594204,480.75 Z" fill="rgb(246,144,42)" stroke="#f6902a" stroke-width="1.5" stroke-linecap="round" stroke-linejoin="round"/></g></g><g id="2y6pqt5t1u"><g><path d="M 704.8333333333334,470 L 751.1166666666667,470 L 751.1166666666667,412.73333333333335 L 751.1166666666667,355.4666666666667 L 796.4,355.4666666666667" fill="none" stroke="#f6902a" stroke-width="1.5" stroke-linecap="round" stroke-linejoin="round"/><path d="M 796.4,355.4666666666667 L 787.704347826087,349.7166666666667 L 787.704347826087,361.2166666666667 Z" fill="rgb(246,144,42)" stroke="#f6902a" stroke-width="1.5" stroke-linecap="round" stroke-linejoin="round"/></g></g><g id="1yiab9ojfg"><g transform="translate(1190 295)"><rect x="0" y="0" width="90.00000327825546" height="44.99999862909317" fill="rgba(255,255,255,1)" stroke="#03c9a9" stroke-width="1.5" stroke-linecap="round" stroke-linejoin="round"/></g><g transform="translate(1206.5000016391277, 307.9999993145466) rotate(0, 28.5, 9.5)" width="57" height="19"><text text-decoration="none" x="1" fill="rgb(0, 0, 0)" font-size="10pt" font-family="Lato"  y="17">Operator</text><text text-decoration="none" x="56" fill="#4b4b4b" font-size="10pt" font-family="noto_regular"  y="17"></text></g></g><g id="51wxh194xn"><g transform="translate(975.1833333333333 180)"><path d="M 0.75,0.75 L 149.25,0.75 L 149.25,104.75 L 0.75,104.75 Z" fill="rgb(255, 255, 255)" stroke="rgb(3, 201, 169)" stroke-width="1.5" stroke-linecap="round" stroke-linejoin="round"/><path d="M 0.75,30.25 L 149.25,30.25" fill="none" stroke="rgb(3, 201, 169)" stroke-width="1.5" stroke-linecap="round" stroke-linejoin="round"/></g><g transform="translate(1040.4333333333334, 184.75) rotate(0, 0, 0)" width="15" height="19"><text text-decoration="none" x="0" fill="#4b4b4b" font-weight="bold" font-size="11pt" font-family="Lato"  y="17">4&#160;</text><text text-decoration="none" x="13" fill="#4b4b4b" font-size="10pt" font-family="noto_regular"  y="17"></text></g><g transform="translate(993.1833333333334, 213) rotate(0, 58.5, 0)" width="117" height="49"><text text-decoration="none" x="10" fill="#000000" font-size="9pt" font-family="Lato"  y="13">Retrieve&#160;</text><text text-decoration="none" x="59" fill="#000000" font-size="9pt" font-family="Lato"  y="13">/&#160;</text><text text-decoration="none" x="66" fill="#000000" font-size="9pt" font-family="Lato"  y="13">Update</text><text text-decoration="none" x="107" fill="#000000" font-size="9pt" font-family="Lato"  y="13"></text><text text-decoration="none" x="2.5" fill="#000000" font-size="9pt" font-family="Lato"  y="31">Message&#160;</text><text text-decoration="none" x="56.5" fill="#000000" font-size="9pt" font-family="Lato"  y="31">info&#160;</text><text text-decoration="none" x="80.5" fill="#000000" font-size="9pt" font-family="Lato"  y="31">from&#160;</text><text text-decoration="none" x="110.5" fill="#000000" font-size="9pt" font-family="Lato"  y="31">/</text><text text-decoration="none" x="114.5" fill="#000000" font-size="9pt" font-family="Lato"  y="31"></text><text text-decoration="none" x="41.5" fill="#000000" font-size="9pt" font-family="Lato"  y="53">to&#160;</text><text text-decoration="none" x="55.5" fill="#000000" font-size="9pt" font-family="Lato"  y="53">DB&#160;</text><text text-decoration="none" x="75.5" fill="#4b4b4b" font-size="10pt" font-family="noto_regular"  y="53"></text></g></g><g id="1lqd8xyqqu"><g><path d="M 1190,305 L 1050.1833333333334,305 L 1050.1833333333334,285" fill="none" stroke="#f6902a" stroke-width="1.5" stroke-linecap="round" stroke-linejoin="round"/><path d="M 1050.1833333333334,285 L 1044.4333333333334,293.69565217391306 L 1055.9333333333334,293.69565217391306 Z" fill="rgb(246,144,42)" stroke="#f6902a" stroke-width="1.5" stroke-linecap="round" stroke-linejoin="round"/></g></g><g id="1w4aix4o28"><g><path d="M 1050.1833333333334,180 L 1050.1833333333334,130 L 1050.075,130 L 1049.9666666666667,130 L 1049.9666666666667,80" fill="none" stroke="#f6902a" stroke-width="1.5" stroke-linecap="round" stroke-linejoin="round"/><path d="M 1049.9666666666667,80 L 1044.2166666666667,88.69565217391305 L 1055.7166666666667,88.69565217391305 Z" fill="rgb(246,144,42)" stroke="#f6902a" stroke-width="1.5" stroke-linecap="round" stroke-linejoin="round"/></g></g><g id="19j68dvtol"><g transform="translate(505 95)"><rect x="0" y="0" width="101" height="101" fill="rgba(255,255,255,1)" stroke="#03c9a9" stroke-width="1.5" stroke-linecap="round" stroke-linejoin="round"/></g><g transform="translate(527, 128) rotate(0, 28.5, 17.5)" width="57" height="35"><text text-decoration="none" x="1.5" fill="rgb(0, 0, 0)" font-size="10pt" font-family="Lato"  y="14">Web&#160;</text><text text-decoration="none" x="31.5" fill="rgb(0, 0, 0)" font-size="10pt" font-family="Lato"  y="14">App&#160;</text><text text-decoration="none" x="3.5" fill="rgb(0, 0, 0)" font-size="10pt" font-family="Lato"  y="36">listening</text><text text-decoration="none" x="53.5" fill="#4b4b4b" font-size="10pt" font-family="noto_regular"  y="36"></text></g></g><g id="2cew6ytqn6"><g><path d="M 605,145 L 615.5,145 L 615.5,144.16666666666666 L 615.5,143.33333333333331 L 625,143.33333333333331" fill="none" stroke="#f6902a" stroke-width="1.5" stroke-linecap="round" stroke-linejoin="round"/><path d="M 625,143.33333333333331 L 616.304347826087,137.58333333333331 L 616.304347826087,149.08333333333331 Z" fill="rgb(246,144,42)" stroke="#f6902a" stroke-width="1.5" stroke-linecap="round" stroke-linejoin="round"/></g></g><g id="4c6ujk3hz8"><g transform="translate(1184.1333333333334 525)"><rect x="0" y="0" width="101" height="54.99999564886093" fill="rgba(255,255,255,1)" stroke="#03c9a9" stroke-width="1.5" stroke-linecap="round" stroke-linejoin="round"/></g><g transform="translate(1195.6333333333334, 542.9999978244305) rotate(0, 39, 9.5)" width="78" height="19"><text text-decoration="none" x="5" fill="rgb(0, 0, 0)" font-size="10pt" font-family="Lato"  y="17">JS&#160;</text><text text-decoration="none" x="18" fill="rgb(0, 0, 0)" font-size="10pt" font-family="Lato"  y="17">Sip&#160;</text><text text-decoration="none" x="39" fill="rgb(0, 0, 0)" font-size="10pt" font-family="Lato"  y="17">Client</text><text text-decoration="none" x="73" fill="#4b4b4b" font-size="10pt" font-family="noto_regular"  y="17"></text></g></g><g id="28ttjojyzq"><g transform="translate(1050 609.6166666666667)"><rect x="0" y="0" width="101" height="54.99999564886093" fill="rgba(255,255,255,1)" stroke="#03c9a9" stroke-width="1.5" stroke-linecap="round" stroke-linejoin="round"/></g><g transform="translate(1074, 627.6166644910971) rotate(0, 26.5, 9.5)" width="53" height="19"><text text-decoration="none" x="3" fill="rgb(0, 0, 0)" font-size="10pt" font-family="Lato"  y="17">Asterisk</text><text text-decoration="none" x="50" fill="#4b4b4b" font-size="10pt" font-family="noto_regular"  y="17"></text></g></g><g id="2d5ihy0ohf"><g transform="translate(550 585)"><rect x="0" y="0" width="101" height="101" fill="rgba(255,255,255,1)" stroke="#03c9a9" stroke-width="1.5" stroke-linecap="round" stroke-linejoin="round"/></g><g transform="translate(554, 626) rotate(0, 46.5, 9.5)" width="93" height="19"><text text-decoration="none" x="4" fill="rgb(0, 0, 0)" font-size="10pt" font-family="Lato"  y="17">VOIP&#160;</text><text text-decoration="none" x="37" fill="rgb(0, 0, 0)" font-size="10pt" font-family="Lato"  y="17">Gateway</text><text text-decoration="none" x="89" fill="#4b4b4b" font-size="10pt" font-family="noto_regular"  y="17"></text></g></g><g id="aug6ho2xee"><g transform="translate(35 585)"><rect x="0" y="0" width="101" height="101" fill="rgba(255,255,255,1)" stroke="#03c9a9" stroke-width="1.5" stroke-linecap="round" stroke-linejoin="round"/></g><g transform="translate(68.5, 626) rotate(0, 17, 9.5)" width="34" height="19"><text text-decoration="none" x="1" fill="rgb(0, 0, 0)" font-size="10pt" font-family="Lato"  y="17">PSTN</text><text text-decoration="none" x="33" fill="#4b4b4b" font-size="10pt" font-family="noto_regular"  y="17"></text></g></g><g id="2leg1vx9nl"><mask id="248cb" x="42" y="97" width="116" height="501" maskUnits="userSpaceOnUse"><rect x="42" y="97" width="116" height="501" fill="white" /><rect x="73.76575342465753" y="112.3" width="73" height="25" fill="black" /></mask><g mask="url(#248cb)"><path d="M 145,110 L 145,124.8 L 100,124.8 L 55,124.8 L 55,132.23333333333332 L 55,139.66666666666666 L 55,139.66666666666666 L 55,139.66666666666666 L 55,154.5 L 55,169.33333333333334 L 55,169.33333333333334 L 55,169.33333333333334 L 55,199.03333333333336 L 55,228.73333333333335 L 55,228.73333333333335 L 55,228.73333333333335 L 55,288.11666671137016 L 55,347.50000008940697 L 55,347.50000008940697 L 55,347.50000008940697 L 55,585" fill="none" stroke="#f6902a" stroke-width="1.5" stroke-linecap="round" stroke-linejoin="round"/><path d="M 55,585 L 60.75,576.304347826087 L 49.25,576.304347826087 Z" fill="rgb(246,144,42)" stroke="#f6902a" stroke-width="1.5" stroke-linecap="round" stroke-linejoin="round"/></g><g transform="translate(76.76575342465753, 115.3)" width="67" height="19"><text text-decoration="none" x="1" fill="rgb(0, 0, 0)" font-size="9pt" font-family="Lato"  y="17">Make&#160;</text><text text-decoration="none" x="35" fill="rgb(0, 0, 0)" font-size="9pt" font-family="Lato"  y="17">a&#160;</text><text text-decoration="none" x="45" fill="rgb(0, 0, 0)" font-size="9pt" font-family="Lato"  y="17">Call</text><text text-decoration="none" x="66" fill="#4b4b4b" font-size="10pt" font-family="noto_regular"  y="17"></text></g></g><g id="2p3on4g1vx"><g><path d="M 85.43333333333332,217.6 L 85.43333333333332,238.0666666666667 L 85.21666666666667,238.0666666666667 L 85,238.0666666666667 L 85,249.63333333333333 L 85,261.2 L 85,261.2 L 85,261.2 L 85,284.33333333333337 L 85,307.4666666666667 L 85,307.4666666666667 L 85,307.4666666666667 L 85,353.73333337803683 L 85,400.00000008940697 L 85,400.00000008940697 L 85,400.00000008940697 L 85,585" fill="none" stroke="#f6902a" stroke-width="1.5" stroke-linecap="round" stroke-linejoin="round"/><path d="M 85,585 L 90.75,576.304347826087 L 79.25,576.304347826087 Z" fill="rgb(246,144,42)" stroke="#f6902a" stroke-width="1.5" stroke-linecap="round" stroke-linejoin="round"/></g></g><g id="2ihr4vzovt"><mask id="fb16b" x="101.93333333333332" y="292" width="26.066666666666677" height="306" maskUnits="userSpaceOnUse"><rect x="101.93333333333332" y="292" width="26.066666666666677" height="306" fill="white" /><rect x="78.43333333333332" y="333.81623414921853" width="73" height="25" fill="black" /></mask><g mask="url(#fb16b)"><path d="M 114.93333333333332,305 L 114.93333333333332,374.93333333333334 L 114.96666666666667,374.93333333333334 L 115,374.93333333333334 L 115,409.966666504542 L 115,444.9999996757507 L 115,444.9999996757507 L 115,444.9999996757507 L 115,585" fill="none" stroke="#f6902a" stroke-width="1.5" stroke-linecap="round" stroke-linejoin="round"/><path d="M 115,585 L 120.75,576.304347826087 L 109.25,576.304347826087 Z" fill="rgb(246,144,42)" stroke="#f6902a" stroke-width="1.5" stroke-linecap="round" stroke-linejoin="round"/></g><g transform="translate(81.43333333333332, 336.81623414921853)" width="67" height="19"><text text-decoration="none" x="1" fill="rgb(0, 0, 0)" font-size="9pt" font-family="Lato"  y="17">Make&#160;</text><text text-decoration="none" x="35" fill="rgb(0, 0, 0)" font-size="9pt" font-family="Lato"  y="17">a&#160;</text><text text-decoration="none" x="45" fill="rgb(0, 0, 0)" font-size="9pt" font-family="Lato"  y="17">Call</text><text text-decoration="none" x="66" fill="#4b4b4b" font-size="10pt" font-family="noto_regular"  y="17"></text></g></g><g id="16kenk22gy"><g><path d="M 135,635 L 550,635" fill="none" stroke="#f6902a" stroke-width="1.5" stroke-linecap="round" stroke-linejoin="round"/><path d="M 550,635 L 541.304347826087,629.25 L 541.304347826087,640.75 Z" fill="rgb(246,144,42)" stroke="#f6902a" stroke-width="1.5" stroke-linecap="round" stroke-linejoin="round"/></g></g><g id="4t6dkxe1ja"><g><path d="M 650,635 L 850.5,635 L 850.5,634.8083333333334 L 850.5,634.6166666666667 L 1050,634.6166666666667" fill="none" stroke="#f6902a" stroke-width="1.5" stroke-linecap="round" stroke-linejoin="round"/><path d="M 1050,634.6166666666667 L 1041.304347826087,628.8666666666667 L 1041.304347826087,640.3666666666667 Z" fill="rgb(246,144,42)" stroke="#f6902a" stroke-width="1.5" stroke-linecap="round" stroke-linejoin="round"/></g></g><g id="1lyor4j8c0"><g><path d="M 1150,619.6166666666667 L 1234.1333333333334,619.6166666666667 L 1234.1333333333334,580" fill="none" stroke="#f6902a" stroke-width="1.5" stroke-linecap="round" stroke-linejoin="round"/><path d="M 1234.1333333333334,580 L 1228.3833333333334,588.695652173913 L 1239.8833333333334,588.695652173913 Z" fill="rgb(246,144,42)" stroke="#f6902a" stroke-width="1.5" stroke-linecap="round" stroke-linejoin="round"/></g></g><g id="4xf0opb18m"><g transform="translate(1159.2166666666667 390)"><path d="M 0.75,0.75 L 149.25,0.75 L 149.25,90.75 L 0.75,90.75 Z" fill="rgb(255, 255, 255)" stroke="rgb(3, 201, 169)" stroke-width="1.5" stroke-linecap="round" stroke-linejoin="round"/><path d="M 0.75,30.25 L 149.25,30.25" fill="none" stroke="rgb(3, 201, 169)" stroke-width="1.5" stroke-linecap="round" stroke-linejoin="round"/><path d="M 0.75,75.25 L 149.25,75.25" fill="none" stroke="rgb(3, 201, 169)" stroke-width="1.5" stroke-linecap="round" stroke-linejoin="round"/></g><g transform="translate(1224.4666666666667, 394.75) rotate(0, 0, 0)" width="15" height="19"><text text-decoration="none" x="0" fill="#4b4b4b" font-weight="bold" font-size="11pt" font-family="Lato"  y="17">5&#160;</text><text text-decoration="none" x="13" fill="#4b4b4b" font-size="10pt" font-family="noto_regular"  y="17"></text></g><g transform="translate(1191.2166666666667, 423) rotate(0, 44.5, 0)" width="89" height="37"><text text-decoration="none" x="3" fill="#4b4b4b" font-size="11pt" font-family="Lato"  y="16">Open&#160;</text><text text-decoration="none" x="45" fill="#4b4b4b" font-size="11pt" font-family="Lato"  y="16">Audio</text><text text-decoration="none" x="86" fill="#4b4b4b" font-size="11pt" font-family="Lato"  y="16"></text><text text-decoration="none" x="14.5" fill="#4b4b4b" font-size="11pt" font-family="Lato"  y="38">Channel&#160;</text><text text-decoration="none" x="74.5" fill="#4b4b4b" font-size="10pt" font-family="noto_regular"  y="38"></text></g></g><g id="tuy22wjm5t"><g><path d="M 1235,340 L 1235,364.9999993145466 L 1234.6083333333333,364.9999993145466 L 1234.2166666666667,364.9999993145466 L 1234.2166666666667,390" fill="none" stroke="#f6902a" stroke-width="1.5" stroke-linecap="round" stroke-linejoin="round"/><path d="M 1234.2166666666667,390 L 1239.9666666666667,381.30434782608694 L 1228.4666666666667,381.30434782608694 Z" fill="rgb(246,144,42)" stroke="#f6902a" stroke-width="1.5" stroke-linecap="round" stroke-linejoin="round"/></g></g><g id="277vifo82p"><g><path d="M 1234.2166666666667,480 L 1234.2166666666667,502.5 L 1234.1750000000002,502.5 L 1234.1333333333334,502.5 L 1234.1333333333334,525" fill="none" stroke="#f6902a" stroke-width="1.5" stroke-linecap="round" stroke-linejoin="round"/><path d="M 1234.1333333333334,525 L 1239.8833333333334,516.304347826087 L 1228.3833333333334,516.304347826087 Z" fill="rgb(246,144,42)" stroke="#f6902a" stroke-width="1.5" stroke-linecap="round" stroke-linejoin="round"/></g></g><g id="2gxjmseuox"><g><path d="M 946.4,330.4666666666667 L 1068.45,330.4666666666667 L 1068.45,330.23333333333335 L 1068.45,330 L 1190,330" fill="none" stroke="#f6902a" stroke-width="1.5" stroke-linecap="round" stroke-linejoin="round"/><path d="M 1190,330 L 1181.304347826087,324.25 L 1181.304347826087,335.75 Z" fill="rgb(246,144,42)" stroke="#f6902a" stroke-width="1.5" stroke-linecap="round" stroke-linejoin="round"/></g></g></svg>